{"title":"Sam and Max Complete Series","uid":11000433,"size":3427043664,"categoryP":"video","categoryS":"tv_shows","magnet":"?xt=urn:btih:b72e4d785fbb09f2d3381d4cba6d10bf9e44c806&amp;dn=Sam+and+Max+Complete+Series&amp;tr=udp%3A%2F%2Ftracker.openbittorrent.com%3A80&amp;tr=udp%3A%2F%2Fopen.demonii.com%3A1337&amp;tr=udp%3A%2F%2Ftracker.coppersurfer.tk%3A6969&amp;tr=udp%3A%2F%2Fexodus.desync.com%3A6969","seeders":4,"leechers":1,"uploader":"horrorhound","files":-1,"time":1410130759,"description":"Sam and Max Freelance Police Complete Series with the bonus shorts\n\nscreens: &lt;a href=&quot;\nhttp://image.bayimg.com/43b717a66ed1ba89acde5adc41f4f04d1112b39c.jpg&quot; rel=&quot;nofollow&quot; target=&quot;_NEW&quot;&gt;\nhttp://image.bayimg.com/43b717a66ed1ba89acde5adc41f4f04d1112b39c.jpg&lt;/a&gt;\n\nVideo\nID : 0\nFormat : MPEG-4 Visual\nFormat profile : Advanced Simple@L5\nFormat settings, BVOP : 1\nFormat settings, QPel : No\nFormat settings, GMC : No warppoints\nFormat settings, Matrix : Default (H.263)\nCodec ID : XVID\nCodec ID/Hint : XviD\nDuration : 21mn 2s\nBit rate : 1 381 Kbps\nWidth : 640 pixels\nHeight : 480 pixels\nDisplay aspect ratio : 4:3\nFrame rate : 29.970 fps\nColor space : YUV\nChroma subsampling : 4:2:0\nBit depth : 8 bits\nScan type : Progressive\nCompression mode : Lossy\nBits/(Pixel*Frame) : 0.150\nStream size : 208 MiB (91%)\nWriting library : XviD 1.1.2 (UTC 2006-11-01)\n\nAudio\nID : 1\nFormat : MPEG Audio\nFormat version : Version 1\nFormat profile : Layer 3\nMode : Joint stereo\nMode extension : MS Stereo\nCodec ID : 55\nCodec ID/Hint : MP3\nDuration : 21mn 2s\nBit rate mode : Constant\nBit rate : 128 Kbps\nChannel(s) : 2 channels\nSampling rate : 48.0 KHz\nCompression mode : Lossy\nStream size : 19.3 MiB (8%)\nAlignment : Split accross interleaves\nInterleave, duration : 33 ms (1.00 video frame)","torrent":{"xt":"urn:btih:b72e4d785fbb09f2d3381d4cba6d10bf9e44c806","amp;dn":"Sam+and+Max+Complete+Series","amp;tr":["udp%3A%2F%2Ftracker.openbittorrent.com%3A80","udp%3A%2F%2Fopen.demonii.com%3A1337","udp%3A%2F%2Ftracker.coppersurfer.tk%3A6969","udp%3A%2F%2Fexodus.desync.com%3A6969"],"infoHash":"b72e4d785fbb09f2d3381d4cba6d10bf9e44c806","infoHashBuffer":{"type":"Buffer","data":[183,46,77,120,95,187,9,242,211,56,29,76,186,109,16,191,158,68,200,6]},"announce":[],"urlList":[]}}